<svg width="59" height="89" viewBox="0 0 59 89" fill="none" xmlns="http://www.w3.org/2000/svg">
<path d="M41.0828 76.0489C39.8885 77.2115 38.5084 77.8443 37.1797 77.8443C37.1208 77.8443 37.0631 77.8432 37.0068 77.8412C35.3339 77.7708 33.2896 77.012 33.0448 73.7869L33.0437 73.7344C33.0088 71.4683 34.0697 68.9536 35.8073 67.1713C36.9917 65.9583 38.3265 65.2844 39.5724 65.2708C39.5943 65.2708 39.6167 65.2708 39.6407 65.2708C42.2765 65.2708 43.638 66.8599 43.6875 69.9969C43.7188 72.1349 42.7213 74.4541 41.0828 76.0489V76.0489ZM24.9636 85.8875C24.8964 85.8907 24.8303 85.8927 24.7631 85.8927C23.7948 85.8927 22.9172 85.5479 22.2183 84.8916C21.2891 84.0193 20.7656 82.6683 20.7417 81.088V81.086C20.7109 78.9583 21.7713 76.4916 23.4448 74.8016C24.6281 73.6073 25.976 72.9489 27.2417 72.9489C27.2469 72.9489 27.25 72.9489 27.2552 72.9489C29.1073 72.9557 31.3432 73.7807 31.4735 77.6667C31.5943 81.2823 28.0656 85.7401 24.9636 85.8875V85.8875ZM15.4688 83.5849C15.4344 83.5849 15.3995 83.5864 15.3656 83.5864C14.1412 83.5864 12.8443 82.974 11.7021 81.8552C9.95361 80.1432 8.87974 77.6344 8.89734 75.3047L8.89841 75.2636C9.09694 71.6027 11.3245 70.9188 13.2448 70.9667C16.3151 71.0677 19.5568 75.0765 19.5479 78.7683C19.5375 82.6563 17.3245 83.5339 15.4688 83.5849ZM7.50787 70.6844C7.38801 70.6916 7.27241 70.6948 7.15787 70.6948C3.84427 70.6948 3.26934 67.7651 2.88601 65.8027C2.81254 65.4349 2.74268 65.0708 2.65881 64.7271L2.61254 64.5391L2.80107 63.5479C3.25361 61.0683 3.87507 57.6713 7.77814 57.4745C9.08334 57.4093 10.1385 57.7583 10.9292 58.5109C12.3333 59.8469 12.4953 62.0964 12.4953 63.6719C12.4921 69.224 9.78121 70.5516 7.50787 70.6844V70.6844ZM13.274 44.7421C14.5464 43.5812 15.9369 42.9953 17.174 43.1011C20.612 43.3864 20.8823 46.4197 20.9708 47.4172L20.9745 47.4891C20.9896 49.8547 19.8604 52.4787 18.0973 54.1735C16.9823 55.2464 15.7251 55.8307 14.5375 55.8307C14.4828 55.8307 14.4287 55.8297 14.3755 55.8255C12.8307 55.7557 10.2448 55.0287 10.2688 50.9735C10.2823 48.8469 11.4609 46.4011 13.274 44.7421V44.7421ZM23.7287 62.1667C23.7317 64.2599 22.5724 66.7317 20.776 68.464C19.5869 69.6104 18.2912 70.2364 17.1088 70.2364C17.0656 70.2364 17.0251 70.2364 16.9839 70.2344C15.2703 70.1697 13.1849 69.3385 12.9849 65.7448C12.8719 63.6921 13.8027 61.3265 15.4136 59.5683C16.6297 58.2412 18.0323 57.4849 19.3645 57.4421C20.4787 57.4083 21.5541 57.7995 22.3328 58.5541C23.2303 59.4213 23.7265 60.7036 23.7287 62.1667V62.1667ZM23.9453 44.8907C25.088 43.8052 26.376 43.2432 27.524 43.2792C29.3079 43.3489 31.4579 44.1921 31.5604 47.8156V47.8599C31.5057 50.2104 30.3235 52.8083 28.5479 54.4776C27.4688 55.4921 26.3197 56.024 25.2145 56.024C25.1697 56.024 25.1255 56.024 25.0812 56.0229C23.2287 55.9489 21.0292 55.036 21.0807 51.0891C21.1063 48.9531 22.2317 46.5208 23.9453 44.8907V44.8907ZM35.5917 62.1203C35.6979 64.1011 34.7432 66.4375 33.1016 68.2161C31.874 69.5511 30.4828 70.3047 29.186 70.3407C29.1281 70.3421 29.0713 70.3421 29.0156 70.3421C25.3755 70.3421 24.9995 67.0787 24.8745 65.9964L24.8693 65.9079C24.8385 63.7364 25.8584 61.3469 27.5307 59.6724C28.7469 58.4531 30.1427 57.7844 31.4661 57.7844C31.4839 57.7844 31.4984 57.7844 31.514 57.7844C33.2729 57.8068 35.4079 58.576 35.5917 62.1203V62.1203ZM41.1703 0.936008C28.8864 0.176541 19.6245 7.00268 18.1224 19.0901C16.9557 28.4869 14.0817 36.9307 8.01774 44.4437C4.41614 48.9063 2.18387 54.1557 1.06614 59.8C-1.85159 74.5396 10.0079 88.4943 25.9964 88.4287C29.5156 88.6328 33.274 87.6303 36.8 85.6547C47.0751 79.9011 53.1145 67.8416 51.3287 56.1765C50.2625 49.2145 50.8281 42.4948 53.3797 35.8943C55.1177 31.3973 56.5005 26.786 57.9276 22.1807C60.6516 13.3907 51.7396 1.59014 41.1703 0.936008Z" fill="#363636"/>
</svg>
